<svg viewBox="0 0 72 72" xmlns="http://www.w3.org/2000/svg">
  <g>
    <path fill="none" stroke="#fff" stroke-linecap="round" stroke-linejoin="round" stroke-width="2" d="m44.04 46.24 0.6839-0.4559a2.55 2.55 0 0 1 3.218 0.3187l1.65 1.65a2.55 2.55 0 0 1 0.1854 3.399l-0.8328 1.038a2.55 2.55 0 0 1-2.126 0.95l-1.501-0.08121a2.55 2.55 0 0 1-2.412-2.546v-2.151a2.55 2.55 0 0 1 1.135-2.122z"/>
    <path fill="none" stroke="#fff" stroke-miterlimit="10" stroke-width="2" d="m23.59 46.21 0.7924-0.7046a2.55 2.55 0 0 1 1.694-0.6445h13.48a2.55 2.55 0 0 1 1.695 0.6445l0.7923 0.7046a2.55 2.55 0 0 1 0.8555 1.905v2.985a2.55 2.55 0 0 1-0.8555 1.905l-0.7923 0.7046a2.55 2.55 0 0 1-1.695 0.6445h-13.48a2.55 2.55 0 0 1-1.694-0.6445l-0.7924-0.7046a2.55 2.55 0 0 1-0.8554-1.905v-2.985a2.55 2.55 0 0 1 0.8551-1.905z"/>
    <path fill="none" stroke="#fff" stroke-miterlimit="10" stroke-width="2" d="m49.86 48.06-2.37-2.37a2.55 2.55 0 0 1-0.7364-2.034l0.9638-10.6q0.01032-0.1132 0.03073-0.2253l1.951-10.73a2.55 2.55 0 0 1 1.094-1.665l4.443-2.962a2.55 2.55 0 0 1 2.419-0.2221l4.76 2.04a2.55 2.55 0 0 1 1.546 2.344v4.265a2.55 2.55 0 0 1-0.2246 1.046l-9.057 20.13a2.55 2.55 0 0 1-1.519 1.373l-0.6913 0.2304a2.55 2.55 0 0 1-2.609-0.6159z"/>
    <path transform="rotate(270) translate(-67.5 4) scale(0.5)" fill="none" stroke="#fff" stroke-linecap="round" stroke-linejoin="round" stroke-miterlimit="10" stroke-width="4" d="M41,35.9064v0l1.3665-0.5157c4.0791-1.5392,7.0017-5.1705,7.6335-9.4843v0c0.601-4.2073-0.4505-7.4505-3-10 c0,0-1.3928-1.3928-3.5973-2.435C42.75,13.1629,42,13.6653,42,14.3871l0,7.5193l-2,3h-3h-1h-3l-2-3l0-7.5193 c0-0.7219-0.75-1.2242-1.4026-0.9157C27.3928,14.5136,26,15.9064,26,15.9064c-2.5495,2.5495-3.601,5.7927-3,10 c0.005,0.0351,0.0102,0.0702,0.0154,0.1052c0.6494,4.3283,3.72,7.9082,7.815,9.4534"/>
  </g>
</svg>
