<svg viewBox="-10 -10 65 65" xmlns="http://www.w3.org/2000/svg">
  <g>
    <path fill="none" stroke="#fff" stroke-linecap="round" stroke-linejoin="round" stroke-miterlimit="10" stroke-width="2" d="M 12.714286 20.140162 C 13.739561 18.860906 15.839961 16.00063 17.304582 15.642857 C 23.65305 14.092074 25.201769 4.6661182 28.184927 4.6987494000000005 C 28.184926986694336 4.698749542236328 26.900991439819336 3.577043056488037 23.440210342407227 12.453770637512207 C 21.95229098077929 16.27020815954419 19.986188888549805 20.384702682495117 17.80879783630371 23.37618637084961 C 17.462190282516037 23.852384942937064 12.714286 20.140162 12.714286 20.140162 Z"/>
    <path fill="none" stroke="#fff" stroke-linecap="round" stroke-linejoin="round" stroke-miterlimit="10" stroke-width="2" d="M 10 31.214286 L 1.0714286 24.928571 L 12.642858 20.142858 L 17.51857687463379 23.64214636315918 C 16.285499572753906 27.336965560913086 10 31.21428680419922 10 31.21428680419922 L 10 31.214286 Z"/>
    <path fill="none" stroke="#fff" stroke-linecap="round" stroke-linejoin="round" stroke-miterlimit="10" stroke-width="2" d="M 41.714285 35.071428 C 36.958003 24.782278 31.902471 4.6248895 28.214286 4.6428571 C 24.552245 4.6606974999999995 22.09053 24.727468 10 31.142857 C 13.748792 29.382201 15.395749 32.625409 18.5 41.071428 C 24.746225 40.370116 28.937707 30.386601 32.418923 29.730867 C 36.73611 28.917667 37.098053 32.223421 41.714285 35.071428 Z"/>
  </g>
</svg>
