<svg viewBox="0 0 72 72" xmlns="http://www.w3.org/2000/svg">
  <g>
    <path fill="none" stroke="#fff" stroke-linecap="round" stroke-linejoin="round" stroke-miterlimit="10" stroke-width="2" d="M22.8341,52.6719c8.2686-0.0728,10.415-0.2643,15.3341-0.4335"/>
    <circle cx="16.5319" cy="52.7022" r="3" fill="none" stroke="#fff" stroke-miterlimit="10" stroke-width="2"/>
    <circle cx="50.2153" cy="45.7022" r="1" fill="none" stroke="#fff" stroke-miterlimit="10" stroke-width="2"/>
    <circle cx="50.2153" cy="45.7022" r="10" fill="none" stroke="#fff" stroke-miterlimit="10" stroke-width="2"/>
    <path fill="none" stroke="#fff" stroke-linecap="round" stroke-linejoin="round" stroke-miterlimit="10" stroke-width="2" d="M61.3365,51.9588c0.5526-0.0137,0.851-0.0213,0.851-0.0213s2,0.125,2.3125-1.1875c0.0414-0.1738,0.2878-13.7904-1.529-17.571 c-0.148-0.3081-0.4411-0.5118-0.7806-0.552c-3.0415-0.3603-19.4332-1.1578-25.2529,1.3105c0,0-4.6406,1.2031-17.75,6.875 c0,0-4.5,2.25-7.875,3.875S7,48.4375,7,48.4375s0.25,3,0.75,3.9375c0.0763,0.1431,0.3975,0.2323,2.5817,0.2808"/>
  </g>
</svg>
